<svg xmlns="http://www.w3.org/2000/svg" width="211.39" height="77.021" viewBox="1557.61 1337.082 211.39 77.021"><g data-name="Get_it_on_Google_play"><path d="M1761.172 1414.103h-195.733c-4.304 0-7.829-4.333-7.829-9.626v-57.766c0-5.293 3.525-9.629 7.829-9.629h195.733c4.303 0 7.828 4.336 7.828 9.629v57.766c.002 5.293-3.523 9.626-7.828 9.626Z" fill="#a64e97" fill-rule="evenodd" data-name="path14"/><g data-name="Group 10754"><g data-name="Group 668"><g data-name="Group 2"><g data-name="Group 3"><path d="M1606.271 1374.45a8.02 8.02 0 0 1 3.819-6.73 8.21 8.21 0 0 0-6.47-3.498c-2.72-.285-5.36 1.63-6.747 1.63-1.413 0-3.548-1.602-5.848-1.554a8.615 8.615 0 0 0-7.25 4.42c-3.134 5.429-.796 13.405 2.206 17.793 1.503 2.147 3.258 4.546 5.557 4.462 2.248-.094 3.087-1.435 5.8-1.435 2.69 0 3.477 1.435 5.821 1.38 2.413-.04 3.932-2.158 5.383-4.326a17.763 17.763 0 0 0 2.46-5.012 7.75 7.75 0 0 1-4.731-7.13Z" fill="#fff" fill-rule="evenodd" data-name="Path"/><path d="M1601.843 1361.337a7.895 7.895 0 0 0 1.807-5.658 8.036 8.036 0 0 0-5.2 2.69 7.52 7.52 0 0 0-1.854 5.448 6.643 6.643 0 0 0 5.247-2.48Z" fill="#fff" fill-rule="evenodd" data-name="Path 2"/></g></g><g data-name="Group 665"><path d="M1639.07 1386.074h-7.324l-1.76 5.194h-3.103l6.94-19.22h3.223l6.939 19.22h-3.156l-1.758-5.194Zm-6.566-2.398h5.807l-2.863-8.43h-.08l-2.864 8.43Z" fill="#fff" fill-rule="evenodd" data-name="Path 6887"/><path d="M1658.97 1384.263c0 4.354-2.33 7.152-5.848 7.152a4.75 4.75 0 0 1-4.408-2.452h-.066v6.94h-2.877v-18.648h2.784v2.331h.053a4.97 4.97 0 0 1 4.461-2.476c3.557 0 5.902 2.81 5.902 7.153Zm-2.955 0c0-2.837-1.468-4.702-3.704-4.702-2.198 0-3.676 1.904-3.676 4.702 0 2.823 1.478 4.714 3.676 4.714 2.236 0 3.704-1.852 3.704-4.714Z" fill="#fff" fill-rule="evenodd" data-name="Path 6888"/><path d="M1674.393 1384.263c0 4.354-2.33 7.152-5.848 7.152a4.75 4.75 0 0 1-4.408-2.452h-.067v6.94h-2.877v-18.648h2.784v2.331h.053a4.97 4.97 0 0 1 4.462-2.476c3.556 0 5.901 2.81 5.901 7.153Zm-2.957 0c0-2.837-1.466-4.702-3.702-4.702-2.198 0-3.676 1.904-3.676 4.702 0 2.823 1.478 4.714 3.676 4.714 2.236 0 3.702-1.852 3.702-4.714Z" fill="#fff" fill-rule="evenodd" data-name="Path 6889"/><path d="M1684.585 1385.913c.213 1.907 2.064 3.157 4.595 3.157 2.425 0 4.17-1.25 4.17-2.97 0-1.492-1.053-2.385-3.544-2.996l-2.491-.6c-3.529-.853-5.168-2.503-5.168-5.182 0-3.315 2.89-5.594 6.994-5.594 4.061 0 6.845 2.279 6.938 5.594h-2.903c-.174-1.918-1.758-3.076-4.077-3.076-2.317 0-3.902 1.172-3.902 2.876 0 1.359 1.013 2.159 3.49 2.77l2.118.52c3.943.934 5.58 2.517 5.58 5.33 0 3.594-2.863 5.846-7.417 5.846-4.263 0-7.141-2.199-7.327-5.675h2.944Z" fill="#fff" fill-rule="evenodd" data-name="Path 6890"/><path d="M1702.593 1373.94v3.315h2.665v2.278h-2.665v7.725c0 1.2.534 1.76 1.706 1.76.316-.007.631-.028.945-.067v2.264a8.008 8.008 0 0 1-1.597.133c-2.837 0-3.943-1.066-3.943-3.784v-8.03h-2.037v-2.279h2.037v-3.315h2.89Z" fill="#fff" fill-rule="evenodd" data-name="Path 6891"/><path d="M1706.801 1384.263c0-4.41 2.597-7.18 6.646-7.18 4.063 0 6.647 2.77 6.647 7.18 0 4.42-2.57 7.178-6.647 7.178-4.075 0-6.646-2.758-6.646-7.178Zm10.362 0c0-3.024-1.385-4.81-3.716-4.81-2.33 0-3.714 1.798-3.714 4.81 0 3.037 1.383 4.807 3.714 4.807 2.33 0 3.716-1.77 3.716-4.807Z" fill="#fff" fill-rule="evenodd" data-name="Path 6892"/><path d="M1722.465 1377.255h2.744v2.385h.067a3.34 3.34 0 0 1 3.37-2.53c.33-.002.662.034.985.106v2.69a4.053 4.053 0 0 0-1.292-.173 2.899 2.899 0 0 0-2.998 3.224v8.31h-2.876v-14.012Z" fill="#fff" fill-rule="evenodd" data-name="Path 6893"/><path d="M1742.891 1387.153c-.386 2.542-2.863 4.288-6.032 4.288-4.077 0-6.607-2.73-6.607-7.111 0-4.396 2.544-7.247 6.486-7.247 3.877 0 6.314 2.664 6.314 6.912v.986h-9.897v.174a3.65 3.65 0 0 0 3.77 3.968 3.17 3.17 0 0 0 3.236-1.97h2.73Zm-9.722-4.182h7.005a3.369 3.369 0 0 0-3.436-3.557 3.547 3.547 0 0 0-3.569 3.526v.03Z" fill="#fff" fill-rule="evenodd" data-name="Path 6894"/></g><g data-name="Group 4"><g data-name="Group 667"><path d="M1630.412 1357.207a4.086 4.086 0 0 1 4.346 4.59c0 2.949-1.594 4.645-4.346 4.645h-3.335v-9.235h3.335Zm-1.9 7.929h1.74a2.902 2.902 0 0 0 3.045-3.321 2.91 2.91 0 0 0-3.044-3.303h-1.742v6.624Z" fill="#fff" fill-rule="evenodd" data-name="Path 6895"/><path d="M1636.378 1362.954a3.3 3.3 0 0 1 2.972-3.6 3.3 3.3 0 0 1 3.601 3.6 3.302 3.302 0 1 1-6.573 0Zm5.159 0c0-1.51-.68-2.394-1.87-2.394-1.196 0-1.868.883-1.868 2.394 0 1.523.672 2.4 1.868 2.4 1.19 0 1.87-.883 1.87-2.4Z" fill="#fff" fill-rule="evenodd" data-name="Path 6896"/><path d="M1651.688 1366.442h-1.427l-1.44-5.133h-.11l-1.433 5.133h-1.413l-1.922-6.969h1.396l1.248 5.318h.103l1.433-5.318h1.32l1.432 5.318h.109l1.242-5.318h1.376l-1.914 6.97Z" fill="#fff" fill-rule="evenodd" data-name="Path 6897"/><path d="M1655.218 1359.473h1.323v1.107h.102a2.085 2.085 0 0 1 2.08-1.242 2.265 2.265 0 0 1 2.413 2.593v4.511h-1.376v-4.166c0-1.12-.486-1.678-1.504-1.678a1.598 1.598 0 0 0-1.664 1.766v4.078h-1.374v-6.969Z" fill="#fff" fill-rule="evenodd" data-name="Path 6898"/><path d="M1663.328 1356.752h1.374v9.69h-1.374v-9.69Z" fill="#fff" fill-rule="evenodd" data-name="Path 6899"/><path d="M1666.615 1362.954a3.3 3.3 0 1 1 6.573 0 3.303 3.303 0 1 1-6.573 0Zm5.158 0c0-1.51-.68-2.394-1.87-2.394-1.196 0-1.867.883-1.867 2.394 0 1.523.671 2.4 1.868 2.4 1.19 0 1.87-.883 1.87-2.4Z" fill="#fff" fill-rule="evenodd" data-name="Path 6900"/><path d="M1674.637 1364.47c0-1.253.933-1.977 2.592-2.08l1.887-.108v-.602c0-.735-.486-1.151-1.426-1.151-.77 0-1.3.281-1.453.773h-1.331c.14-1.196 1.266-1.964 2.848-1.964 1.745 0 2.731.87 2.731 2.342v4.762h-1.323v-.98h-.11a2.344 2.344 0 0 1-2.092 1.095 2.106 2.106 0 0 1-2.323-2.086Zm4.479-.594v-.583l-1.701.108c-.96.065-1.396.392-1.396 1.006 0 .627.544.992 1.292.992a1.642 1.642 0 0 0 1.8-1.469l.005-.054Z" fill="#fff" fill-rule="evenodd" data-name="Path 6901"/><path d="M1682.293 1362.954c0-2.203 1.133-3.597 2.892-3.597.89-.04 1.723.435 2.138 1.223h.104v-3.828h1.374v9.69h-1.317v-1.102h-.11a2.417 2.417 0 0 1-2.189 1.217c-1.772 0-2.892-1.395-2.892-3.603Zm1.42 0c0 1.478.697 2.368 1.863 2.368 1.159 0 1.875-.903 1.875-2.362 0-1.452-.724-2.368-1.875-2.368-1.158 0-1.862.896-1.862 2.362Z" fill="#fff" fill-rule="evenodd" data-name="Path 6902"/><path d="M1694.492 1362.954a3.302 3.302 0 1 1 6.573 0 3.302 3.302 0 1 1-6.573 0Zm5.158 0c0-1.51-.678-2.394-1.87-2.394-1.194 0-1.868.883-1.868 2.394 0 1.523.674 2.4 1.868 2.4 1.192 0 1.87-.883 1.87-2.4Z" fill="#fff" fill-rule="evenodd" data-name="Path 6903"/><path d="M1702.91 1359.473h1.324v1.107h.102a2.085 2.085 0 0 1 2.08-1.242 2.265 2.265 0 0 1 2.413 2.593v4.511h-1.376v-4.166c0-1.12-.486-1.678-1.504-1.678a1.6 1.6 0 0 0-1.664 1.766v4.078h-1.376v-6.969Z" fill="#fff" fill-rule="evenodd" data-name="Path 6904"/><path d="M1716.6 1357.738v1.766h1.51v1.16h-1.51v3.582c0 .73.302 1.051.986 1.051.175-.002.35-.012.525-.032v1.145a4.512 4.512 0 0 1-.75.071c-1.529 0-2.137-.539-2.137-1.882v-3.936h-1.106v-1.159h1.106v-1.766h1.376Z" fill="#fff" fill-rule="evenodd" data-name="Path 6905"/><path d="M1719.99 1356.752h1.361v3.84h.11a2.145 2.145 0 0 1 2.125-1.247 2.295 2.295 0 0 1 2.4 2.598v4.5h-1.377v-4.16c0-1.114-.518-1.679-1.49-1.679a1.628 1.628 0 0 0-1.755 1.768v4.07h-1.375v-9.69Z" fill="#fff" fill-rule="evenodd" data-name="Path 6906"/><path d="M1734.005 1364.56a2.83 2.83 0 0 1-3.02 2.017 3.166 3.166 0 0 1-3.219-3.598 3.216 3.216 0 0 1 3.213-3.64c1.94 0 3.11 1.324 3.11 3.513v.48h-4.922v.077a1.842 1.842 0 0 0 1.856 1.996 1.674 1.674 0 0 0 1.659-.845h1.323Zm-4.838-2.245h3.521a1.682 1.682 0 0 0-1.716-1.807 1.782 1.782 0 0 0-1.805 1.76v.047Z" fill="#fff" fill-rule="evenodd" data-name="Path 6907"/></g></g></g></g></g></svg>