<svg xmlns="http://www.w3.org/2000/svg" width="20.467" height="9.399" viewBox="247.771 29.999 20.467 9.399"><g data-name="Arrow"><path d="M247.771 34.698c0-.312.12-.61.333-.83a1.12 1.12 0 0 1 .804-.344h15.449l-1.478-1.514a1.198 1.198 0 0 1-.334-.833c0-.312.12-.612.334-.833.214-.22.504-.345.807-.345.303 0 .593.124.807.345l3.41 3.52a1.209 1.209 0 0 1-.177 1.806c-.186.13-.405.2-.63.201h-18.188a1.12 1.12 0 0 1-.804-.344 1.193 1.193 0 0 1-.333-.83Z" fill="#5abac2" fill-rule="evenodd" data-name="Vector"/><path d="M262.55 38.218a1.207 1.207 0 0 1 .33-.833l3.41-3.52a1.124 1.124 0 0 1 1.243-.256 1.182 1.182 0 0 1 .705 1.089c0 .312-.12.612-.334.833l-3.41 3.52a1.106 1.106 0 0 1-1.614 0 1.177 1.177 0 0 1-.33-.833Z" fill="#5abac2" fill-rule="evenodd" data-name="Vector"/></g></svg>