<svg xmlns="http://www.w3.org/2000/svg" width="36.473" height="43.738"><g data-name="16 Success"><path d="M25.544 43.738H3.16A3.16 3.16 0 0 1 0 40.578V10.875a3.16 3.16 0 0 1 3.16-3.16h22.388a3.16 3.16 0 0 1 3.16 3.16v29.701a3.16 3.16 0 0 1-3.164 3.16ZM4.267 39.467h20.167v-27.48H4.27l-.004 27.48Z" fill="#5abac2" fill-rule="evenodd" data-name="Path 78044"/><path d="M34.338 38.267a2.135 2.135 0 0 1-2.136-2.136V4.271H10.933a2.135 2.135 0 0 1 0-4.271h22.38a3.16 3.16 0 0 1 3.16 3.16v32.971c0 1.18-.956 2.136-2.135 2.136Z" fill="#5abac2" fill-rule="evenodd" data-name="Path 78045"/></g></svg>