<svg xmlns="http://www.w3.org/2000/svg" width="211.39" height="77.021" viewBox="1316.305 1337.082 211.39 77.021"><g data-name="Get_it_on_Google_play"><path d="M1519.867 1414.103h-195.733c-4.303 0-7.829-4.333-7.829-9.626v-57.766c0-5.293 3.526-9.629 7.829-9.629h195.733c4.303 0 7.828 4.336 7.828 9.629v57.766c.002 5.293-3.523 9.626-7.828 9.626Z" fill="#5ab6c1" fill-rule="evenodd" data-name="path14"/><g data-name="Group 10753"><path d="M1386.492 1366.241c-1.261 0-2.35-.439-3.24-1.305-.888-.875-1.337-1.967-1.337-3.25s.45-2.374 1.337-3.242c.886-.87 1.977-1.312 3.24-1.312.614 0 1.222.124 1.808.37.582.244 1.048.574 1.388.978l.067.08-.91.908-.08-.094c-.556-.648-1.298-.961-2.273-.961-.87 0-1.632.304-2.27.908-.631.605-.952 1.4-.952 2.366 0 .97.32 1.767.952 2.373a3.233 3.233 0 0 0 2.27.906c.928 0 1.706-.306 2.321-.913.378-.375.598-.875.674-1.527h-3.109v-1.251h4.369l.02.088c.046.205.067.416.067.667 0 1.207-.368 2.189-1.097 2.918-.833.858-1.924 1.293-3.245 1.293Z" fill="#fff" fill-rule="evenodd" data-name="Path 6875"/><path d="M1397.436 1366.047h-5.244v-8.719h5.244v1.272h-3.907v2.462h3.524v1.252h-3.524v2.461h3.907v1.272Z" fill="#fff" fill-rule="evenodd" data-name="Path 6876"/><path d="M1402.096 1366.047h-1.334v-7.447h-2.4v-1.272h6.135v1.272h-2.4v7.447Z" fill="#fff" fill-rule="evenodd" data-name="Path 6877"/><path d="M1409.875 1366.047h-1.334v-8.719h1.334v8.719Z" fill="#fff" fill-rule="evenodd" data-name="Path 6878"/><path d="M1414.775 1366.047h-1.328v-7.447h-2.407v-1.272h6.141v1.272h-2.408v7.447h.002Z" fill="#fff" fill-rule="evenodd" data-name="Path 6879"/><path d="M1425.098 1366.241c-1.283 0-2.373-.444-3.237-1.32-.863-.875-1.3-1.962-1.3-3.232 0-1.27.437-2.36 1.3-3.233.864-.876 1.954-1.32 3.237-1.32 1.276 0 2.36.447 3.224 1.329.866.878 1.308 1.963 1.308 3.225 0 1.27-.439 2.358-1.301 3.233-.865.874-1.952 1.318-3.23 1.318Zm-2.257-2.193c.622.62 1.36.92 2.257.92.888 0 1.645-.31 2.25-.92.614-.613.924-1.408.924-2.361 0-.954-.311-1.748-.924-2.361-.608-.612-1.363-.92-2.25-.92-.896 0-1.635.302-2.257.92-.613.613-.922 1.407-.922 2.36-.003.954.31 1.749.922 2.362Z" fill="#fff" fill-rule="evenodd" data-name="Path 6880"/><path d="M1437.805 1366.047h-1.33l-.035-.054-4.2-6.656.039 1.302v5.408h-1.327v-8.719h1.52l4.037 6.385-.037-1.296v-5.089h1.333v8.719Z" fill="#fff" fill-rule="evenodd" data-name="Path 6881"/><path d="M1420.403 1378.331c-3.364 0-6.114 2.532-6.114 6.025 0 3.463 2.75 6.022 6.114 6.022 3.374 0 6.122-2.559 6.122-6.022.002-3.493-2.748-6.025-6.122-6.025Zm0 9.674c-1.845 0-3.434-1.506-3.434-3.65 0-2.171 1.589-3.65 3.434-3.65 1.847 0 3.443 1.479 3.443 3.65.001 2.144-1.596 3.65-3.443 3.65Zm-13.341-9.674c-3.374 0-6.114 2.532-6.114 6.025 0 3.463 2.74 6.022 6.114 6.022 3.372 0 6.114-2.559 6.114-6.022 0-3.493-2.742-6.025-6.114-6.025Zm0 9.674c-1.849 0-3.442-1.506-3.442-3.65 0-2.171 1.593-3.65 3.442-3.65 1.847 0 3.436 1.479 3.436 3.65 0 2.144-1.589 3.65-3.436 3.65Zm-15.875-7.827v2.56h6.185c-.18 1.432-.666 2.482-1.406 3.214-.903.885-2.309 1.869-4.779 1.869-3.805 0-6.787-3.036-6.787-6.798s2.982-6.8 6.787-6.8c2.057 0 3.555.796 4.66 1.826l1.825-1.803c-1.545-1.458-3.6-2.579-6.485-2.579-5.22 0-9.605 4.198-9.605 9.356 0 5.157 4.387 9.355 9.605 9.355 2.82 0 4.94-.913 6.605-2.628 1.707-1.687 2.24-4.058 2.24-5.973 0-.595-.052-1.142-.14-1.599h-8.705Zm64.918 1.984c-.502-1.347-2.055-3.831-5.219-3.831-3.135 0-5.744 2.442-5.744 6.025 0 3.374 2.582 6.022 6.044 6.022 2.8 0 4.416-1.687 5.08-2.67l-2.079-1.369c-.693 1.003-1.637 1.666-3.001 1.666-1.356 0-2.329-.615-2.952-1.825l8.151-3.332c.002 0-.28-.686-.28-.686Zm-8.311 2.006c-.07-2.323 1.825-3.513 3.182-3.513 1.065 0 1.968.527 2.267 1.28l-5.45 2.233Zm-6.624 5.843h2.68v-17.702h-2.68v17.702Zm-4.387-10.337h-.09c-.601-.704-1.75-1.343-3.204-1.343-3.051 0-5.843 2.648-5.843 6.045 0 3.376 2.79 6.002 5.843 6.002 1.454 0 2.603-.642 3.204-1.369h.09v.865c0 2.302-1.246 3.54-3.254 3.54-1.637 0-2.653-1.168-3.072-2.151l-2.33.961c.672 1.598 2.45 3.563 5.402 3.563 3.142 0 5.793-1.827 5.793-6.272v-10.817h-2.54v.976Zm-3.066 8.331c-1.847 0-3.392-1.528-3.392-3.631 0-2.124 1.545-3.672 3.392-3.672 1.82 0 3.255 1.548 3.255 3.672 0 2.105-1.435 3.631-3.255 3.631Zm34.932-15.696h-6.407v17.702h2.673v-6.708h3.736c2.968 0 5.878-2.123 5.878-5.498-.001-3.373-2.92-5.496-5.88-5.496Zm.071 8.533h-3.805v-6.07h3.805a3.089 3.089 0 0 1 3.133 3.035c0 1.369-1.14 3.035-3.133 3.035Zm16.519-2.544c-1.93 0-3.939.843-4.764 2.71l2.371.981c.51-.982 1.449-1.3 2.441-1.3 1.385 0 2.793.823 2.814 2.278v.185c-.485-.276-1.519-.685-2.792-.685-2.553 0-5.156 1.39-5.156 3.983 0 2.373 2.091 3.9 4.443 3.9 1.799 0 2.792-.803 3.414-1.735h.092v1.37h2.58v-6.79c0-3.141-2.372-4.897-5.443-4.897Zm-.323 9.7c-.875 0-2.092-.428-2.092-1.499 0-1.37 1.519-1.896 2.834-1.896 1.176 0 1.728.257 2.443.596-.209 1.638-1.638 2.8-3.185 2.8Zm15.17-9.313-3.072 7.675h-.093l-3.175-7.675h-2.882l4.77 10.725-2.721 5.967h2.79l7.353-16.692h-2.97Zm-24.089 11.326h2.68v-17.702h-2.68v17.702Z" fill="#fff" fill-rule="evenodd" data-name="path46"/><path d="M1341.33 1389.866h.001v-.001c-.327-.344-.515-.883-.515-1.58v-24.867c0-.697.189-1.234.514-1.58.023-.026.047-.05.072-.073l.009-.008c.519-.473 1.32-.506 2.223.009l16.084 9.276h.002l.1.058v.001l5.422 3.131c1.547.89 1.547 2.35 0 3.244l-5.421 3.124-.042.022-16.143 9.311c-.448.258-.87.38-1.246.38-.423 0-.787-.156-1.06-.447Z" fill="#fff" fill-rule="evenodd" data-name="Union 3"/></g></g></svg>