<svg xmlns="http://www.w3.org/2000/svg" width="40.617" height="36.055"><path d="M35.892 27.117a.635.635 0 0 1-.898.898l-1.611-1.612v5.1a.635.635 0 0 1-1.27 0v-5.1l-1.61 1.611a.635.635 0 0 1-.898-.897l2.694-2.694a.636.636 0 0 1 .899 0l2.694 2.694Zm3.408 1.865a6.599 6.599 0 0 0-6.565-7.395 6.6 6.6 0 1 0 6.565 7.395Zm-34.307 2.61h20.66a7.867 7.867 0 0 1 8.844-11.073v-5.002l-4.18-4.18-8.67 6.25 2.585 1.812a.634.634 0 1 1-.728 1.04l-13.026-9.132-9.209 7.787v8.774a3.728 3.728 0 0 0 3.723 3.724Zm0-30.323h25.78a3.727 3.727 0 0 1 3.724 3.723v8.73l-3.664-3.663a.635.635 0 0 0-.82-.067l-9.466 6.824-9.741-6.829a.635.635 0 0 0-.775.036l-8.762 7.41V4.993a3.727 3.727 0 0 1 3.724-3.724Zm33.949 22.066a7.816 7.816 0 0 0-3.176-2.412V4.993A4.998 4.998 0 0 0 30.774 0H4.993A4.998 4.998 0 0 0 0 4.992V27.87a4.999 4.999 0 0 0 4.992 4.993H26.42c.044.06.09.119.135.177a7.868 7.868 0 1 0 12.387-9.704ZM20.011 5.779a2.91 2.91 0 1 1 0 5.818 2.91 2.91 0 0 1 0-5.818Zm0 7.088a4.178 4.178 0 1 1 0-8.357 4.178 4.178 0 0 1 0 8.357Z" fill="#fff" fill-rule="evenodd" data-name="Path 78006"/></svg>