<svg xmlns="http://www.w3.org/2000/svg" width="41.004" height="43.738"><g data-name="Group 40428"><g data-name="Path 78179"><path d="M33.316 28.361a7.682 7.682 0 0 0-6.183 3.124l-12.068-6.167a7.666 7.666 0 0 0 .312-2.168c0-1.019-.2-1.992-.562-2.883l12.648-7.6a7.674 7.674 0 0 0 5.853 2.71c4.24 0 7.688-3.45 7.688-7.689S37.555 0 33.316 0c-4.24 0-7.688 3.449-7.688 7.688 0 .98.184 1.918.52 2.78l-12.68 7.618a7.672 7.672 0 0 0-5.78-2.624C3.45 15.462 0 18.912 0 23.15c0 4.24 3.449 7.689 7.688 7.689a7.684 7.684 0 0 0 6.252-3.218l12.033 6.15a7.663 7.663 0 0 0-.345 2.279c0 4.24 3.449 7.688 7.688 7.688 4.24 0 7.688-3.449 7.688-7.688 0-4.24-3.449-7.689-7.688-7.689Zm0-25.798c2.826 0 5.126 2.3 5.126 5.125 0 2.827-2.3 5.126-5.126 5.126a5.131 5.131 0 0 1-5.125-5.126c0-2.826 2.299-5.125 5.125-5.125ZM7.688 28.276a5.131 5.131 0 0 1-5.125-5.126c0-2.826 2.3-5.125 5.125-5.125 2.827 0 5.126 2.3 5.126 5.125 0 2.827-2.3 5.126-5.126 5.126Zm25.628 12.9a5.131 5.131 0 0 1-5.125-5.126c0-2.827 2.299-5.126 5.125-5.126s5.126 2.3 5.126 5.126c0 2.826-2.3 5.125-5.126 5.125Z" fill="#5abac2" fill-rule="evenodd"/><path d="M33.316 28.361a7.682 7.682 0 0 0-6.183 3.124l-12.068-6.167a7.666 7.666 0 0 0 .312-2.168c0-1.019-.2-1.992-.562-2.883l12.648-7.6a7.674 7.674 0 0 0 5.853 2.71c4.24 0 7.688-3.45 7.688-7.689S37.555 0 33.316 0c-4.24 0-7.688 3.449-7.688 7.688 0 .98.184 1.918.52 2.78l-12.68 7.618a7.672 7.672 0 0 0-5.78-2.624C3.45 15.462 0 18.912 0 23.15c0 4.24 3.449 7.689 7.688 7.689a7.684 7.684 0 0 0 6.252-3.218l12.033 6.15a7.663 7.663 0 0 0-.345 2.279c0 4.24 3.449 7.688 7.688 7.688 4.24 0 7.688-3.449 7.688-7.688 0-4.24-3.449-7.689-7.688-7.689Zm0-25.798c2.826 0 5.126 2.3 5.126 5.125 0 2.827-2.3 5.126-5.126 5.126a5.131 5.131 0 0 1-5.125-5.126c0-2.826 2.299-5.125 5.125-5.125ZM7.688 28.276a5.131 5.131 0 0 1-5.125-5.126c0-2.826 2.3-5.125 5.125-5.125 2.827 0 5.126 2.3 5.126 5.125 0 2.827-2.3 5.126-5.126 5.126Zm25.628 12.9a5.131 5.131 0 0 1-5.125-5.126c0-2.827 2.299-5.126 5.125-5.126s5.126 2.3 5.126 5.126c0 2.826-2.3 5.125-5.126 5.125Z" stroke-linejoin="round" stroke-linecap="round" stroke="#5abac2" fill="transparent"/></g></g></svg>