<svg xmlns="http://www.w3.org/2000/svg" width="30.847" height="28.136"><g data-name="speedometer"><path d="M14.52 3.614h1.807v3.618H14.52V3.614Z" fill="#fff" fill-rule="evenodd" data-name="Path 62"/><path d="M6.432 7.712 7.71 6.434l2.558 2.558L8.99 10.27 6.432 7.712Z" fill="#fff" fill-rule="evenodd" data-name="Path 63"/><path d="M3.614 14.52h3.618v1.807H3.614V14.52Z" fill="#fff" fill-rule="evenodd" data-name="Path 64"/><path d="m6.43 23.133 2.558-2.558 1.278 1.278-2.557 2.558-1.278-1.278Z" fill="#fff" fill-rule="evenodd" data-name="Path 65"/><path d="m23.13 6.438-2.554 2.554 1.278 1.278 1.248-1.248a9.905 9.905 0 0 1 2.282 5.498h-1.77v1.807h1.77a9.903 9.903 0 0 1-2.282 5.497l-1.248-1.247-1.278 1.278 2.554 2.554.64-.64a11.728 11.728 0 0 0 3.462-8.346c0-3.15-1.23-6.113-3.463-8.346l-.639-.639Z" fill="#fff" fill-rule="evenodd" data-name="Path 66"/><path d="m19.297 10.271-2.704 2.705a2.716 2.716 0 0 0-3.882 2.447 2.716 2.716 0 0 0 2.712 2.713 2.716 2.716 0 0 0 2.447-3.882l2.705-2.705-1.278-1.278Zm-3.874 6.057a.906.906 0 0 1 0-1.81.906.906 0 0 1 0 1.81Z" fill="#fff" fill-rule="evenodd" data-name="Path 67"/><path d="M26.33 4.517A15.323 15.323 0 0 0 15.422 0C11.303 0 7.43 1.604 4.517 4.517A15.322 15.322 0 0 0 0 15.423c0 2.493.609 4.97 1.76 7.162a15.556 15.556 0 0 0 4.688 5.382l.236.17h17.478l.236-.17a15.557 15.557 0 0 0 4.688-5.382 15.459 15.459 0 0 0 1.76-7.162c0-4.12-1.604-7.993-4.517-10.906Zm1.156 17.228a13.744 13.744 0 0 1-3.91 4.584h-7.249v-2.714H14.52v2.714H7.27a13.744 13.744 0 0 1-3.91-4.584 13.643 13.643 0 0 1-1.553-6.322c0-3.637 1.417-7.056 3.988-9.628a13.527 13.527 0 0 1 9.628-3.988c3.637 0 7.056 1.417 9.628 3.988a13.527 13.527 0 0 1 3.988 9.628c0 2.201-.537 4.387-1.553 6.322Z" fill="#fff" fill-rule="evenodd" data-name="Path 68"/></g></svg>